<svg width="136" height="60" viewBox="0 0 136 60" fill="none" xmlns="http://www.w3.org/2000/svg">
<path fill-rule="evenodd" clip-rule="evenodd" d="M136.212 0.547493C136.705 0.481985 137.123 0.426287 137.278 0H98.5936C98.5683 0.189141 98.5263 0.37421 98.4838 0.561688L98.4837 0.561816C98.4133 0.872268 98.3414 1.18933 98.3414 1.54244C98.1931 1.61672 97.9684 1.63996 97.7286 1.66477C97.2703 1.71217 96.7568 1.7653 96.6151 2.19109C96.3396 1.77695 95.8002 1.53909 95.2776 1.30868C94.9818 1.17821 94.6913 1.05013 94.4573 0.89379C93.81 1.32622 92.9468 1.32622 92.0837 0.89379C91.9758 0.89379 91.8679 1.0019 91.76 1.11001C91.6522 1.21811 91.5443 1.32622 91.4364 1.32622C91.2472 1.13662 91.2239 0.947024 91.2028 0.77565C91.1758 0.556157 91.1525 0.366559 90.789 0.245142C90.2083 0.943365 89.8777 0.702105 89.4606 0.397809L89.4606 0.3978C89.2486 0.243106 89.0143 0.0721237 88.7134 0H88.0987C88.0613 0.00810982 88.023 0.0177191 87.9839 0.0289258L87.9839 0H83.9181C83.7774 0.153786 83.6683 0.307572 83.6683 0.461358C83.1504 0.201899 82.8655 0.409465 82.5807 0.617032C82.3908 0.755411 82.2009 0.89379 81.942 0.89379C81.942 1.75865 81.7262 2.19109 81.0789 2.4073C80.8631 2.4073 80.4315 2.19109 80.4315 1.75865C80.4315 2.24432 80.1594 2.3209 79.8443 2.40955C79.5982 2.47876 79.3261 2.55534 79.1368 2.83974C78.8132 2.4073 78.4895 2.4073 78.1389 2.4073C77.7882 2.4073 77.4106 2.40731 76.979 1.97487C76.5475 1.97487 76.3317 2.19109 76.1159 2.4073C75.7264 2.14707 75.1805 2.12175 74.6194 2.09572C74.2482 2.0785 73.8703 2.06097 73.5266 1.97487C73.5266 1.32622 73.5266 0.677574 73.095 0.677574C73.095 0.58802 73.132 0.535558 73.1754 0.4741V0.474087C73.2367 0.387164 73.3108 0.282239 73.3108 0.0289258C73.0494 0.0289258 73.0255 0.187486 72.9993 0.360587V0.360603C72.9823 0.473362 72.9643 0.592288 72.8792 0.677574C72.4476 0.677574 72.2319 0.461358 72.2319 0.245142C71.9499 0.339325 71.7907 0.597609 71.6296 0.859162V0.859178C71.4208 1.19807 71.2085 1.54244 70.7214 1.54244C70.7214 1.45288 70.6844 1.40042 70.641 1.33895C70.5797 1.25203 70.5056 1.1471 70.5056 0.89379C70.3792 0.89379 70.2713 0.912338 70.1819 0.927705C69.9662 0.964801 69.8583 0.983349 69.8583 0.677574C69.6425 0.89379 69.2109 0.89379 68.7794 0.677574C68.3478 1.11001 67.9163 1.97487 68.132 2.4073C68.0517 2.4878 67.9415 2.53832 67.8236 2.59235C67.6248 2.68345 67.4044 2.78451 67.2689 3.05595C66.4058 2.62352 65.7584 2.19109 65.3269 1.54244C65.162 1.54244 65.0602 1.57398 64.9731 1.60093C64.8324 1.64452 64.7305 1.67607 64.4638 1.54244C64.248 1.54244 64.0322 1.97487 64.0322 2.19109C63.5571 2.09589 63.1658 2.16836 62.7659 2.24239C62.2577 2.33649 61.7359 2.43312 61.0113 2.19109C60.7585 2.19109 60.7278 2.26528 60.7024 2.32675C60.6844 2.37021 60.6691 2.4073 60.5797 2.4073C60.1481 2.4073 59.5008 2.40731 59.285 1.97487C58.9691 1.97487 58.8844 2.20662 58.7771 2.50045C58.7378 2.608 58.6955 2.72387 58.6377 2.83974C58.0595 2.49217 57.7293 2.82747 57.4144 3.1471C57.1417 3.42399 56.8805 3.68911 56.4799 3.48838C56.372 3.48838 56.372 3.59649 56.372 3.7046C56.372 3.81271 56.372 3.92082 56.2641 3.92082C55.9944 3.65055 55.7246 3.80257 55.4549 3.9546C55.2931 4.04582 55.1312 4.13703 54.9694 4.13703C54.8482 4.13703 54.7951 4.00067 54.7336 3.84281C54.6856 3.71955 54.6324 3.58318 54.5378 3.48838C54.4299 3.7046 54.3221 3.65055 54.2142 3.59649C54.1063 3.54244 53.9984 3.48838 53.8905 3.7046C53.6747 3.7046 53.5668 3.59649 53.4589 3.48838C53.351 3.38028 53.2431 3.27217 53.0274 3.27217C52.9195 3.27217 52.9195 3.38028 52.9195 3.48838C52.9195 3.59649 52.9195 3.7046 52.8116 3.7046C52.5239 3.56046 52.6198 3.41631 52.7157 3.27217C52.7636 3.2001 52.8116 3.12802 52.8116 3.05595C52.7119 2.85611 52.4739 2.74862 52.2041 2.62678C51.8902 2.48499 51.5332 2.32375 51.3011 1.97487C50.9852 1.97487 50.9005 2.09074 50.7932 2.23766C50.7539 2.29143 50.7116 2.34937 50.6538 2.4073C50.5594 2.31278 50.4239 2.38355 50.2831 2.45702C50.1019 2.55161 49.9121 2.65069 49.7906 2.4073C49.5967 2.4073 49.4463 2.53836 49.2807 2.68265C49.0779 2.85937 48.8523 3.05595 48.496 3.05595C48.6181 3.42314 48.3254 3.65176 48.0092 3.89869C47.7668 4.08797 47.5107 4.28801 47.4171 4.56947C47.1803 4.56947 47.2033 4.5044 47.2367 4.40996C47.2642 4.33224 47.2987 4.23464 47.2013 4.13703C46.8853 4.13703 46.9163 4.36878 46.9556 4.66262C46.97 4.77016 46.9855 4.88603 46.9855 5.0019C46.3382 5.21812 45.9066 5.43433 45.6908 6.08298C45.2592 6.08298 45.0435 6.2992 44.8277 6.51541C44.551 6.23818 43.9196 6.13868 43.3314 6.046C43.0021 5.99411 42.6864 5.94436 42.4541 5.86676C42.3073 6.0874 42.2104 6.30804 42.121 6.51166C41.9476 6.90666 41.8023 7.23761 41.3752 7.38028C40.2963 7.16406 39.6489 7.16406 39.0016 8.02893C38.3543 7.59649 37.4911 7.81271 37.0596 8.02893C36.1542 7.78151 35.3116 7.78575 34.5318 7.78968C33.2673 7.79605 32.1678 7.80158 31.2335 6.73163C30.8019 6.94784 30.1546 7.16406 29.5072 7.16406C29.5072 6.99889 29.4757 6.8968 29.4489 6.80961C29.4054 6.66854 29.3739 6.56645 29.5072 6.2992C29.2483 6.2992 29.2224 6.53271 29.1965 6.76622C29.1792 6.9219 29.162 7.07757 29.0757 7.16406C28.9679 7.16406 28.9139 7.16406 28.8869 7.13709C28.8599 7.11008 28.8599 7.05604 28.8599 6.94789V6.94784C28.8021 6.9768 28.7482 7.00188 28.6981 7.02515L28.6981 7.02518C28.3744 7.1757 28.2126 7.25096 28.2126 7.81271C27.9248 7.81271 27.8289 7.62052 27.733 7.42833C27.6851 7.33223 27.6371 7.23613 27.5652 7.16406C27.1337 7.59649 26.7021 7.16406 26.4863 6.94784C26.2705 6.94784 26.1626 7.05595 26.0547 7.16406C25.9468 7.27217 25.839 7.38028 25.6232 7.38028C25.5457 7.22508 25.4127 7.12558 25.274 7.02181C25.0261 6.83644 24.7601 6.63745 24.7601 6.08298C23.5105 5.61347 22.261 4.69083 21.1752 3.88904L21.1751 3.889C20.7609 3.5831 20.3704 3.29479 20.0129 3.05595C20.0129 2.98388 19.9889 2.91181 19.9649 2.83974C19.917 2.69559 19.869 2.55145 20.0129 2.4073C19.5813 1.75866 18.7182 1.97487 18.0709 2.4073C18.0709 2.2992 18.0169 2.19109 17.963 2.08298C17.909 1.97487 17.8551 1.86676 17.8551 1.75865C17.4627 2.05349 17.0258 1.99095 16.6457 1.93653C16.1894 1.87123 15.815 1.81762 15.6973 2.4073C15.4815 1.75866 15.2657 1.32622 14.6183 1.11001C13.971 1.54244 12.8921 1.11001 12.029 0.677574C11.8282 0.878715 11.5808 0.705622 11.265 0.484679C10.9018 0.230616 10.4482 -0.08672 9.87117 0.0289258L9.86383 0H-33.2766V60H35.2382C35.3209 59.8226 35.359 59.6123 35.3286 59.3501C35.7267 59.1535 36.1971 59.3593 36.6577 59.5607C37.2096 59.8021 37.7473 60.0373 38.1289 59.5662C38.1289 59.7357 38.1461 59.8787 38.1779 60H67.7625C67.8503 59.9486 67.9445 59.929 68.0567 59.9983C68.0567 59.9989 68.0567 59.9994 68.0567 60H80.3739C80.3686 59.9739 80.3621 59.9479 80.3552 59.9204C80.3334 59.8332 80.3079 59.7312 80.3079 59.5662C81.358 58.918 82.0581 58.4859 82.7581 57.1895H82.9332C83.2832 57.1895 83.1082 57.6216 83.1082 57.6216C83.1806 57.6216 83.2531 57.5475 83.3381 57.4606C83.4582 57.3378 83.6032 57.1895 83.8082 57.1895C84.2422 57.1895 84.7641 56.9183 85.3272 56.6258C86.3535 56.0925 87.5166 55.4882 88.5337 56.3253C89.0587 55.8931 89.7588 55.461 90.6339 55.8931C90.6339 55.9826 90.6639 56.0721 90.6991 56.177C90.7488 56.3253 90.8089 56.5043 90.8089 56.7574C91.3339 56.5413 92.034 56.9734 92.209 57.1895C92.384 57.2975 92.4278 57.1895 92.4715 57.0815C92.5153 56.9734 92.5591 56.8654 92.7341 56.9734C92.7341 56.9014 92.7146 56.8534 92.6952 56.8054C92.6563 56.7094 92.6174 56.6133 92.7341 56.3253C93.123 56.5173 93.6502 56.3679 94.1774 56.2186C94.8364 56.0318 95.4955 55.8451 95.8844 56.3253C96.9345 56.3253 97.4595 55.8931 98.1596 55.245C98.5346 55.5536 98.8204 55.4213 99.2081 55.2418C99.3633 55.17 99.5347 55.0906 99.7347 55.0289V55.6771C100.111 55.5843 100.648 55.6111 101.18 55.6376C101.887 55.6728 102.585 55.7076 102.885 55.461C103.41 56.5413 104.635 56.3253 105.685 56.1092C105.685 56.5953 105.981 56.4738 106.202 56.3827C106.276 56.3523 106.342 56.3253 106.385 56.3253C106.735 56.7574 107.26 56.7574 107.785 56.7574C108.311 56.7574 108.836 56.7574 109.186 57.1895C109.077 57.056 109.17 57.005 109.298 56.9345C109.376 56.8909 109.469 56.8399 109.536 56.7574C109.623 56.8114 109.722 56.8519 109.82 56.8924C110.115 57.014 110.411 57.1355 110.411 57.6216C110.586 57.6216 110.761 57.6216 110.761 57.1895C110.936 57.6216 111.811 58.0537 111.811 57.1895C112.184 57.3737 112.621 57.4401 113.053 57.5059C113.635 57.5945 114.209 57.6819 114.611 58.0537C115.111 57.8068 115.611 57.8421 116.111 57.8774C116.486 57.9038 116.861 57.9303 117.236 57.8377C117.84 58.7312 118.775 58.4957 119.7 58.263C120.116 58.1581 120.531 58.0537 120.912 58.0537C120.999 58.0537 120.999 57.9997 120.999 57.9187C120.999 57.8377 120.999 57.7297 121.087 57.6216C121.485 57.9493 121.782 58.0285 122.208 58.1419C122.344 58.178 122.493 58.2176 122.662 58.2698C122.972 57.9825 123.351 58.1196 123.708 58.2485C124.155 58.4105 124.567 58.5595 124.762 57.8377C125.112 57.8377 125.287 57.8377 125.287 58.0537C125.462 58.0537 125.462 57.6217 125.462 57.1896V57.1895C125.73 57.1895 125.691 57.4417 125.657 57.6571C125.647 57.7236 125.637 57.7867 125.637 57.8377C125.812 57.8377 125.812 57.6216 125.812 57.4056C125.987 57.4056 125.987 57.6216 125.987 57.8377C126.186 57.8377 126.328 57.6287 126.478 57.4086C126.592 57.2409 126.711 57.0668 126.862 56.9734C127.22 56.9734 127.66 57.1242 128.139 57.2887C129.066 57.6064 130.14 57.975 131.063 57.4056L131.588 58.0537C131.675 58.0537 131.675 57.9997 131.675 57.9187C131.675 57.8377 131.675 57.7297 131.763 57.6216C132.181 58.3956 132.599 58.3224 133.128 58.2297C133.486 58.1671 133.894 58.0957 134.388 58.2698C134.388 57.567 134.954 57.3722 135.444 57.2035C135.858 57.061 136.218 56.937 136.138 56.5413C136.138 56.4401 136.253 56.4811 136.394 56.5311C136.553 56.5879 136.745 56.6562 136.838 56.5413C136.98 56.2784 137.151 56.1221 137.316 55.9716C137.557 55.751 137.784 55.5426 137.888 55.0289C138.203 54.9319 138.482 55.0961 138.773 55.2675C139.13 55.4779 139.506 55.6992 139.989 55.461C140.251 56.1092 140.82 56.3253 141.389 56.5413C141.957 56.7574 142.526 56.9734 142.789 57.6216C142.876 57.5136 143.008 57.5136 143.117 57.5136C143.226 57.5136 143.314 57.5136 143.314 57.4056C143.649 59.0588 145.424 59.3284 146.804 59.5378C146.866 59.5473 146.928 59.5568 146.989 59.5662C146.989 59.743 147.008 59.8851 147.042 60H169.277V26.2714C169.263 26.2718 169.249 26.272 169.235 26.2721C169.222 26.2722 169.21 26.2722 169.197 26.2722C169.062 26.2722 168.954 26.2722 168.847 26.3803C168.442 25.5706 168.038 25.7084 167.457 25.9068C167.418 25.9203 167.377 25.9341 167.336 25.9478C167.336 25.7316 167.12 25.5154 166.904 25.5154C166.771 25.918 166.47 25.9041 166.107 25.8874C165.885 25.8771 165.64 25.8658 165.394 25.9478C164.996 25.3503 164.599 25.4867 164.033 25.6809C163.984 25.6975 163.935 25.7146 163.884 25.7316C163.091 25.1359 162.844 25.0873 161.973 24.9158C161.908 24.903 161.84 24.8896 161.768 24.8752L161.726 24.8668C161.634 24.4987 161.347 24.3264 161.08 24.1666C160.721 23.951 160.399 23.758 160.647 23.137C160.236 23.137 160.086 23.0501 159.976 22.9865C159.913 22.9498 159.863 22.9208 159.784 22.9208C159.699 22.8355 159.681 22.7166 159.664 22.6038C159.637 22.4307 159.613 22.2722 159.352 22.2722C159.568 21.8397 159.784 21.1911 159.352 20.9749C159.352 21.2343 159.119 21.2603 158.886 21.2862C158.731 21.3035 158.575 21.3208 158.489 21.4073C158.273 20.9749 157.842 20.7587 157.41 21.1911C157.41 20.9749 157.194 20.9749 156.979 20.9749C156.793 21.0491 156.615 21.1233 156.441 21.1953C155.603 21.543 154.888 21.8397 154.173 21.8397C153.958 21.4073 153.742 20.9749 153.31 20.9749C153.31 21.1911 153.095 21.1911 153.095 21.1911C152.959 21.0554 152.866 20.9196 152.782 20.7973C152.599 20.5298 152.46 20.3262 152.016 20.3262C152.016 20.5424 152.231 20.7587 152.231 20.7587C152.016 20.7587 151.962 20.6505 151.908 20.5424C151.854 20.4343 151.8 20.3262 151.584 20.3262C150.326 20.6063 149.521 19.9794 148.758 19.3854C148.343 19.0623 147.94 18.7489 147.484 18.5965C147.426 18.6544 147.384 18.7124 147.345 18.7661C147.237 18.9131 147.153 19.0289 146.837 19.0289C146.729 18.8127 146.567 18.7587 146.405 18.7046C146.243 18.6505 146.082 18.5965 145.974 18.3803C145.974 18.5965 145.974 19.0289 145.758 19.0289C145.974 18.8127 145.542 18.8127 145.326 18.8127C145.159 19.0641 145.024 19.1856 144.922 19.2779C144.76 19.4237 144.679 19.4966 144.679 19.8938C144.096 19.4073 143.47 19.096 142.84 18.7825C142.069 18.3993 141.291 18.0128 140.579 17.2992C140.579 17.4074 140.579 17.4614 140.552 17.4884C140.525 17.5154 140.471 17.5154 140.363 17.5154C140.579 17.9478 140.579 17.9478 140.363 18.3803C141.227 19.0289 141.011 20.11 140.363 20.9749C140.076 21.119 139.98 21.071 139.884 21.0229C139.836 20.9989 139.788 20.9749 139.716 20.9749C139.716 21.1911 139.608 21.2992 139.5 21.4073C139.392 21.5154 139.285 21.6235 139.285 21.8397C139.042 21.7183 138.936 21.8014 138.813 21.8977C138.717 21.9728 138.611 22.056 138.421 22.056C138.354 22.0221 138.287 21.9882 138.222 21.955C137.457 21.5637 136.86 21.2588 136.264 22.056C135.773 23.695 134.414 22.9733 133.221 22.3398C132.841 22.1376 132.477 21.9444 132.164 21.8397C132.164 21.8397 132.164 22.056 131.948 22.056C131.855 21.4031 131.601 20.8307 131.36 20.2867C131.042 19.5696 130.746 18.9018 130.869 18.1641C131.301 17.9478 132.38 16.8668 131.301 16.6505C130.869 17.2992 130.222 17.9478 128.927 17.7316C128.064 16.6506 126.985 15.7858 125.906 14.921L125.906 14.9208C125.906 14.7046 125.906 14.4884 126.122 14.2722C126.122 14.1826 126.085 14.093 126.041 13.9881C125.98 13.8397 125.906 13.6606 125.906 13.4073C124.491 12.6985 125.024 11.8038 125.559 10.9061C125.84 10.4345 126.122 9.96216 126.122 9.51541C126.553 9.51541 126.985 8.86676 127.201 8.43433C128.331 8.43433 128.639 7.93999 128.986 7.38287L128.986 7.38256C129.037 7.3016 129.088 7.21932 129.143 7.13703C130.437 7.13703 131.732 7.78568 131.516 9.51541C131.905 9.51541 132.06 9.28189 132.216 9.04838C132.319 8.8927 132.423 8.73703 132.595 8.65055C132.89 7.56616 132.782 6.57167 132.679 5.62609V5.62597C132.555 4.49765 132.44 3.43896 133.027 2.38028C133.148 2.31971 133.273 2.25915 133.4 2.19739C134.184 1.81823 135.06 1.39428 135.616 0.650546C135.819 0.599858 136.021 0.572935 136.212 0.547493ZM135.4 13.8397C135.616 13.6235 135.832 13.4073 135.832 13.1911C136.479 13.1911 136.695 13.1911 137.127 13.4073C136.911 14.056 135.832 14.056 135.4 13.8397ZM133.027 13.4073C133.243 13.1911 133.458 13.4073 133.674 13.6235C133.548 13.6235 133.44 13.6421 133.351 13.6574C133.135 13.6945 133.027 13.7131 133.027 13.4073ZM131.732 16.0019C131.732 15.8761 131.75 15.7136 131.771 15.5305C131.821 15.0844 131.885 14.5158 131.732 14.056C131.84 14.056 131.894 14.0019 131.948 13.9478C132.002 13.8938 132.056 13.8397 132.164 13.8397C132.083 14.1618 132.123 14.5139 132.159 14.8401C132.221 15.3899 132.274 15.8662 131.732 16.0019Z" fill="#E50012"/>
</svg>
